# xmcd
#
# Track frame offsets: 
#        150
#        21343
#        38292
#        56815
#        75859
#        99403
#        118161
#        134985
#        153449
#        173090
#        189918
#        206074
#        223695
#        237635
#        255062
#        272644
#
# Disc length: 3835 seconds
#
# Revision: 0
# Processed by: cddbd v1.5.2PL0 Copyright (c) Steve Scherf et al.
# Submitted via: ExactAudioCopy v1.0b3
#
DISCID=d90ef910
DTITLE=Ilir Shaqiri - Kujdes Lirinë
DYEAR=2008
DGENRE=Folk - Shqip
TTITLE0=Nusja e Maleve
TTITLE1=Tahir Meha
TTITLE2=Rrufetë e Ferizajit
TTITLE3=Ushtar Kavaja
TTITLE4=Ëngjujt Arbror
TTITLE5=Dr. Shpëtimi
TTITLE6=Ballëndritur i Burrërisë
TTITLE7=Gryka e Llapushnikut
TTITLE8=Në mes të Atdheut
TTITLE9=Bardhyl Osmani
TTITLE10=Drit qiriri i Naimit
TTITLE11=Ilir Lushtaku
TTITLE12=Vllezërit Muranë
TTITLE13=Bekim Hyseni
TTITLE14=Gjerdani i Trimërisë
TTITLE15=Pranë Lapidarit
EXTD=
EXTT0=
EXTT1=
EXTT2=
EXTT3=
EXTT4=
EXTT5=
EXTT6=
EXTT7=
EXTT8=
EXTT9=
EXTT10=
EXTT11=
EXTT12=
EXTT13=
EXTT14=
EXTT15=
PLAYORDER=
